<?xml version="1.0" encoding="UTF-8"?>
<svg width="28px" height="28px" viewBox="0 0 28 28" version="1.1" xmlns="http://www.w3.org/2000/svg" xmlns:xlink="http://www.w3.org/1999/xlink">
    <title>Outlined/UI/code source</title>
    <g id="控件" stroke="none" stroke-width="1" fill="none" fill-rule="evenodd">
        <g id="网页端导航" transform="translate(-1529.000000, -17.000000)">
            <rect fill="#FFFFFF" x="0" y="0" width="1920" height="90"></rect>
            <rect id="Header-BG" x="0" y="0" width="1920" height="90"></rect>
            <g id="编组" transform="translate(1527.000000, 15.000000)" fill="#252C32">
                <path d="M16,2 C8.26801352,2 2,8.26801352 2,16 C2,23.7319866 8.26801352,30 16,30 C23.7319866,30 30,23.7319866 30,16 C30,12.2869692 28.5250043,8.72601438 25.899495,6.10050508 C23.2739857,3.47499577 19.7130309,2 16,2 Z M16,28 C9.37258303,28 4.00000001,22.6274171 4.00000001,16 C4.00000001,9.37258303 9.37258303,4.00000001 16,4.00000001 C22.6274171,4.00000001 28,9.37258303 28,16 C28,19.1825979 26.735718,22.2348449 24.4852814,24.4852814 C22.2348449,26.735718 19.1825979,28 16,28 Z" id="Style备份"></path>
                <path d="M11.017767,11.0680195 L12.4319805,12.482233 L8.89601948,16.0170195 L12.4319805,19.5533009 L11.017767,20.9675144 L6.06801948,16.017767 L11.017767,11.0680195 Z M21.032233,11.0680195 L25.9819805,16.017767 L24.567767,17.4319805 L21.032233,20.9675144 L19.6180195,19.5533009 L23.1530195,16.0170195 L19.6180195,12.482233 L21.032233,11.0680195 Z" id="形状结合"></path>
                <rect id="矩形" transform="translate(16.000000, 16.500000) rotate(-345.000000) translate(-16.000000, -16.500000) " x="15" y="9" width="2" height="15"></rect>
            </g>
        </g>
    </g>
</svg>