<?xml version="1.0" encoding="UTF-8"?>
<svg width="161px" height="33px" viewBox="0 0 161 33" version="1.1" xmlns="http://www.w3.org/2000/svg" xmlns:xlink="http://www.w3.org/1999/xlink">
    <title>openEuler</title>
    <defs>
        <polygon id="path-1" points="0.0197686883 0.00578130083 19.1373688 0.00578130083 19.1373688 25.1766326 0.0197686883 25.1766326"></polygon>
    </defs>
    <g id="控件" stroke="none" stroke-width="1" fill="none" fill-rule="evenodd">
        <g id="网页导航和页尾" transform="translate(-384.000000, -943.000000)">
            <g id="openEuler" transform="translate(384.000000, 943.000000)">
                <polygon id="Fill-7" fill="#FFFFFF" points="102.001009 0 102.001009 2.03418469 89.5173868 2.03418469 89.5173868 10.5764462 101.218251 10.5764462 101.218251 12.6106309 89.5173868 12.6106309 89.5173868 21.966754 102.545455 21.966754 102.545455 24 87.2727273 24 87.2727273 0"></polygon>
                <path d="M9.09090909,20.2433278 C6.231377,20.2433278 3.91395452,18.0175618 3.91395452,15.2731887 C3.91395452,12.5278927 6.231377,10.3021267 9.09090909,10.3021267 C11.9504412,10.3021267 14.2678637,12.5278927 14.2678637,15.2731887 C14.2678637,18.0175618 11.9504412,20.2433278 9.09090909,20.2433278 M9.09090909,6.54545455 C4.07062804,6.54545455 0,10.4534641 0,15.2731887 C0,20.0929133 4.07062804,24 9.09090909,24 C14.1111901,24 18.1818182,20.0929133 18.1818182,15.2731887 C18.1818182,10.4534641 14.1111901,6.54545455 9.09090909,6.54545455" id="Fill-9" fill="#FFFFFF"></path>
                <g id="编组" transform="translate(20.363636, 6.545455)">
                    <mask id="mask-2" fill="white">
                        <use xlink:href="#path-1"></use>
                    </mask>
                    <g id="Clip-12"></g>
                    <path d="M9.52545884,13.8473344 C6.59949628,13.8473344 4.22725368,11.5982219 4.22725368,8.82506247 C4.22725368,6.05097054 6.59949628,3.80185802 9.52545884,3.80185802 C12.4514214,3.80185802 14.8226805,6.05097054 14.8226805,8.82506247 C14.8226805,11.5982219 12.4514214,13.8473344 9.52545884,13.8473344 M9.83526664,0.00578130083 C7.72955711,0.00578130083 5.78711137,0.670630896 4.22725368,1.78959235 L4.22725368,0.404877552 L0.0197686883,0.404877552 L0.0197686883,25.1768191 L0.260730311,25.1768191 L4.22725368,25.1768191 L4.46821531,25.1768191 L4.46821531,16.0246469 C5.98479826,17.0429019 7.83577693,17.6434112 9.83526664,17.6434112 C14.9731586,17.6434112 19.1373688,13.6953422 19.1373688,8.82506247 C19.1373688,3.95478275 14.9731586,0.00578130083 9.83526664,0.00578130083" id="Fill-11" fill="#FFFFFF" mask="url(#mask-2)"></path>
                </g>
                <path d="M52.2226326,9.41047505 C54.823019,9.41047505 56.4255937,10.8029516 56.9240249,13.1647918 L47.1149002,13.1647918 C47.7215621,10.8029516 49.6212968,9.41047505 52.2226326,9.41047505 M60.9551459,16.1034358 C61.0434395,15.5747762 61.0909091,15.465526 61.0909091,14.9090909 C61.0909091,9.88821302 57.3797333,5.81818182 52.2311771,5.81818182 C47.0826209,5.81818182 42.9090909,9.96968771 42.9090909,14.9896398 C42.9090909,19.2781713 46.1569631,24 52.2311771,24 C57.2183366,24 59.5918181,21.8714737 60.9513484,18.7948782 L56.5917374,18.7948782 C55.7828549,20.0540325 54.0207822,20.4262237 52.2226326,20.4262237 C49.4978757,20.4262237 47.5440257,18.581933 47.0379994,16.1034358" id="Fill-13" fill="#FFFFFF"></path>
                <path d="M69.6675188,14.5670778 C69.6675188,12.6292593 71.4339491,10.3927332 73.3447869,10.3927332 C75.2556246,10.3927332 76.5851056,11.9647293 76.5851056,13.9025478 L76.5869689,13.9025478 L76.5869689,24 L76.7416248,24 L80.5707536,24 L80.7272727,24 L80.7272727,13.3911528 L80.7272727,13.3892622 C80.7272727,9.60909829 77.7068261,6.54545455 73.9820433,6.54545455 C72.232383,6.54545455 70.6383101,7.22132782 69.4392618,8.32919282 L69.4392618,6.94908796 L65.4545455,6.94908796 L65.4545455,24 L65.6818709,24 L69.4392618,24 L69.6675188,24" id="Fill-15" fill="#FFFFFF"></path>
                <polygon id="Fill-17" fill="#FFFFFF" points="89.4860979 21.9753048 89.4860979 12.588934 101.251267 12.588934 101.251267 10.5642388 89.4860979 10.5642388 89.4860979 2.02469522 102.016313 2.02469522 102.016313 0 87.2727273 0 87.2727273 1.03063457 87.2727273 2.02469522 87.2727273 10.5642388 87.2727273 12.588934 87.2727273 21.9753048 87.2727273 24 89.4860979 24 102.545455 24 102.545455 21.9753048"></polygon>
                <polygon id="Fill-19" fill="#FFFFFF" points="126.545455 24 128.727273 24 128.727273 0 126.545455 0"></polygon>
                <path d="M155.427875,9.8204362 L155.427875,8.34479312 L153.454545,8.34479312 L153.454545,23.2727273 L155.427875,23.2727273 L155.427875,14.3929646 L155.430618,14.3929646 C155.430618,11.9302842 157.474358,9.93298525 159.995428,9.93119876 L160,8 C158.220529,8 156.607483,8.69494571 155.427875,9.8204362" id="Fill-21" fill="#FFFFFF"></path>
                <path d="M108.996278,8.72727273 L106.909091,8.72727273 L106.909091,17.6291521 C106.911025,21.1477943 110.004085,24 113.819633,24 C115.695006,24 117.395318,23.3094754 118.640086,22.1907184 L118.640086,23.6368947 L120.727273,23.6368947 L120.727273,8.72727273 L118.642988,8.72727273 L118.642988,17.7834942 C118.642988,20.2404771 116.483262,22.2326495 113.819633,22.2326495 C111.156003,22.2326495 108.996278,20.2404771 108.996278,17.7834942" id="Fill-22" fill="#FFFFFF"></path>
                <path d="M141.369525,9.81101106 C144.356993,9.81101106 146.17296,11.8062236 146.654901,14.4972073 L136.18561,14.4972073 C136.644064,11.8062236 138.382056,9.81101106 141.369525,9.81101106 M149.030784,16.2690072 C149.033602,16.1796421 149.03736,16.090277 149.03736,16 C149.03736,11.581899 145.968159,8 141.415558,8 C136.864836,8 133.818182,11.581899 133.818182,16 C133.818182,20.418101 136.631851,24 141.415558,24 C146.084652,24 148.171182,21.6856264 149.090909,18.483985 L146.807093,18.483985 C146.094046,20.664311 143.980271,22.1889889 141.369525,22.1889889 C138.489154,22.1889889 136.158365,19.5618375 136.066299,16.2690072" id="Fill-23" fill="#FFFFFF"></path>
            </g>
        </g>
    </g>
</svg>