<?xml version="1.0" encoding="UTF-8"?>
<svg width="28px" height="26px" viewBox="0 0 28 26" version="1.1" xmlns="http://www.w3.org/2000/svg" xmlns:xlink="http://www.w3.org/1999/xlink">
    <title>Outlined/UI/paper</title>
    <defs>
        <rect id="path-1" x="0" y="0" width="200" height="60" rx="8"></rect>
        <filter x="-24.0%" y="-70.0%" width="148.0%" height="260.0%" filterUnits="objectBoundingBox" id="filter-3">
            <feOffset dx="0" dy="6" in="SourceAlpha" result="shadowOffsetOuter1"></feOffset>
            <feGaussianBlur stdDeviation="15" in="shadowOffsetOuter1" result="shadowBlurOuter1"></feGaussianBlur>
            <feColorMatrix values="0 0 0 0 0   0 0 0 0 0   0 0 0 0 0  0 0 0 0.1 0" type="matrix" in="shadowBlurOuter1"></feColorMatrix>
        </filter>
    </defs>
    <g id="Web" stroke="none" stroke-width="1" fill="none" fill-rule="evenodd">
        <g id="文档_学习路径_20.03-LTS" transform="translate(-427.000000, -1021.000000)">
            <rect fill="#FFFFFF" x="0" y="0" width="1920" height="1464"></rect>
            <g id="学习路径" transform="translate(409.000000, 500.000000)">
                <g id="开发" transform="translate(0.000000, 504.000000)">
                    <g id="应用开发指南">
                        <mask id="mask-2" fill="white">
                            <use xlink:href="#path-1"></use>
                        </mask>
                        <g id="Base">
                            <use fill="black" fill-opacity="1" filter="url(#filter-3)" xlink:href="#path-1"></use>
                            <use fill="#FFFFFF" fill-rule="evenodd" xlink:href="#path-1"></use>
                        </g>
                        <g id="openEuler/icons/coding" mask="url(#mask-2)" fill="#252C32">
                            <g transform="translate(16.000000, 14.000000)" id="形状结合">
                                <path d="M28,23 C29.1045695,23 30,23.8954305 30,25 L30,27 C30,28.1045695 29.1045695,29 28,29 L4,29 C2.8954305,29 2,28.1045695 2,27 L2,25 C2,23.8954305 2.8954305,23 4,23 L28,23 Z M27,25 L5,25 C4.44771525,25 4,25.4477153 4,26 C4,26.5128358 4.38604019,26.9355072 4.88337887,26.9932723 L5,27 L27,27 C27.5522847,27 28,26.5522847 28,26 C28,25.4477153 27.5522847,25 27,25 Z M25.5,3 C27.0177969,3 28.2584778,4.18647397 28.3451619,5.68254086 L28.35,5.85000001 L28.35,22 L3.64999996,22 L3.64999996,5.85000001 C3.64999996,4.33220316 4.83647393,3.09152216 6.33254082,3.00483806 L6.49999997,3 L25.5,3 Z M25.375,5.00000001 L6.62499997,5.00000001 C6.14421637,5.00000001 5.747962,5.36191269 5.69380721,5.8281677 L5.68749997,5.93750001 L5.68749997,20 L26.3125,20 L26.3125,5.93750001 C26.3125,5.41973305 25.892767,5.00000001 25.375,5.00000001 Z M16.3281694,8 L18.2600211,8.51763809 L15.9306496,17.2109705 L13.998798,16.6933324 L16.3281694,8 Z M20.517767,9.08844818 L24.0533009,12.6239821 L20.517767,16.159516 L19.1035534,14.7453024 L21.225,12.6234482 L19.1035534,10.5026617 L20.517767,9.08844818 Z M11.5355339,9.08844818 L12.9497475,10.5026617 L10.828,12.6234482 L12.9497475,14.7453024 L11.5355339,16.159516 L8,12.6239821 L11.5355339,9.08844818 Z"></path>
                            </g>
                        </g>
                    </g>
                </g>
            </g>
        </g>
    </g>
</svg>