<?xml version="1.0" encoding="UTF-8"?>
<svg width="26px" height="28px" viewBox="0 0 26 28" version="1.1" xmlns="http://www.w3.org/2000/svg" xmlns:xlink="http://www.w3.org/1999/xlink">
    <title>Outlined/UI/paper</title>
    <defs>
        <rect id="path-1" x="0" y="0" width="240" height="60" rx="8"></rect>
        <filter x="-20.0%" y="-70.0%" width="140.0%" height="260.0%" filterUnits="objectBoundingBox" id="filter-3">
            <feOffset dx="0" dy="6" in="SourceAlpha" result="shadowOffsetOuter1"></feOffset>
            <feGaussianBlur stdDeviation="15" in="shadowOffsetOuter1" result="shadowBlurOuter1"></feGaussianBlur>
            <feColorMatrix values="0 0 0 0 0   0 0 0 0 0   0 0 0 0 0  0 0 0 0.1 0" type="matrix" in="shadowBlurOuter1"></feColorMatrix>
        </filter>
    </defs>
    <g id="Web" stroke="none" stroke-width="1" fill="none" fill-rule="evenodd">
        <g id="文档_学习路径_20.03-LTS" transform="translate(-1020.000000, -676.000000)">
            <rect fill="#FFFFFF" x="0" y="0" width="1920" height="1464"></rect>
            <g id="学习路径" transform="translate(409.000000, 500.000000)">
                <g id="安装" transform="translate(396.000000, 160.000000)">
                    <g id="快速入门" transform="translate(196.000000, 0.000000)">
                        <mask id="mask-2" fill="white">
                            <use xlink:href="#path-1"></use>
                        </mask>
                        <g id="Base">
                            <use fill="black" fill-opacity="1" filter="url(#filter-3)" xlink:href="#path-1"></use>
                            <use fill="#FFFFFF" fill-rule="evenodd" xlink:href="#path-1"></use>
                        </g>
                        <g id="openEuler/icons/quickstart" mask="url(#mask-2)" fill="#252C32">
                            <g transform="translate(16.000000, 14.000000)" id="形状结合">
                                <path d="M15.4842944,2.57939697 C15.770971,2.45773008 16.1011944,2.47580969 16.3752551,2.63421563 C19.4528851,4.41307302 21.5270053,7.00017479 22.5960597,10.3954666 C24.6787693,10.8379451 26.7614789,14.7328622 28.8441885,22.0802179 C28.8693382,22.1689407 28.8820944,22.2607158 28.8820944,22.3529342 C28.8820944,22.9052139 28.4343832,23.352925 27.8821036,23.3529342 L27.8821036,23.3529342 L19.1506364,23.3518037 C19.7442717,24.0576788 20.123732,24.9288394 20.123732,25.8 C20.123732,26.9044958 19.2087988,28.0089916 17.3789324,29.1134874 L17.123735,29.264102 C16.5049323,29.621368 15.7425358,29.6213681 15.1237331,29.2641022 C13.1237324,28.1094015 12.123732,26.9547007 12.123732,25.8 C12.123732,24.9288394 12.5031924,24.0576788 13.0968277,23.3518037 L4.1199908,23.3529342 L4.00337075,23.3462047 C3.50603664,23.2884328 3.12,22.8657653 3.12,22.3529342 C3.12,22.2607158 3.13275617,22.1689407 3.15790586,22.0802179 C5.1428529,15.0777477 7.12779993,11.2112076 9.11182074,10.4807619 C10.1234817,7.23046729 12.0925357,4.68717948 15.0189828,2.85089846 L15.0189828,2.85089846 L15.3643898,2.64009413 Z M16.1195097,23.408122 C15.0420137,23.408122 13.9645176,24.4856181 13.9645176,25.5631141 C13.9645176,26.193573 14.5178539,26.824032 15.6245265,27.4544909 C15.8930296,27.607454 16.2147076,27.6265735 16.4965037,27.5118495 L16.6145603,27.4544875 L16.8284952,27.3283713 C17.7924996,26.7399522 18.2745018,26.1515332 18.2745018,25.5631141 C18.2745018,24.4856181 17.1970058,23.408122 16.1195097,23.408122 Z M16.4839387,5.30049298 C16.1580396,5.04970769 15.7164579,5.02643906 15.3692304,5.22975762 L15.3692304,5.22975762 L15.2572707,5.30592131 L14.9525284,5.55165444 L14.6433474,5.81617272 C12.7201786,7.51247041 11.4615851,9.60805758 10.8675669,12.1029342 C10.2000965,14.90631 10.0746742,17.791482 10.4913001,20.75845 L10.4913001,20.75845 L10.5818526,21.3529342 L21.1532812,21.3529342 C21.6880738,18.2323968 21.5928358,15.1490635 20.8675669,12.1029342 C20.2011572,9.30401356 18.7399478,7.03653315 16.4839387,5.30049298 Z M23.3454885,13.7203049 C23.7397537,16.2892838 23.7229491,18.8333625 23.2950747,21.352541 L23.2950747,21.352541 L26.395667,21.3529342 L26.2860901,20.9627799 C25.3054819,17.5099543 24.3248857,15.0956485 23.3454885,13.7203049 Z M8.3222447,14.2307939 C7.45365629,15.6595456 6.58483499,17.9035347 5.71600429,20.9627799 L5.71600429,20.9627799 L5.6064274,21.3529342 L8.45305344,21.3523594 C8.05835005,18.9741532 8.01447046,16.6005143 8.3222447,14.2307939 Z M15.8675669,9.5 C17.5244211,9.5 18.8675669,10.8431458 18.8675669,12.5 C18.8675669,14.1568542 17.5244211,15.5 15.8675669,15.5 C14.2107126,15.5 12.8675669,14.1568542 12.8675669,12.5 C12.8675669,10.8431458 14.2107126,9.5 15.8675669,9.5 Z M15.8675669,11.5 C15.3152821,11.5 14.8675669,11.9477153 14.8675669,12.5 C14.8675669,13.0522847 15.3152821,13.5 15.8675669,13.5 C16.4198516,13.5 16.8675669,13.0522847 16.8675669,12.5 C16.8675669,11.9477153 16.4198516,11.5 15.8675669,11.5 Z"></path>
                            </g>
                        </g>
                    </g>
                </g>
            </g>
        </g>
    </g>
</svg>