<?xml version="1.0" encoding="UTF-8"?>
<svg width="26px" height="28px" viewBox="0 0 26 28" version="1.1" xmlns="http://www.w3.org/2000/svg" xmlns:xlink="http://www.w3.org/1999/xlink">
    <title>Outlined/UI/paper</title>
    <defs>
        <rect id="path-1" x="0" y="0" width="200" height="60" rx="8"></rect>
        <filter x="-24.0%" y="-70.0%" width="148.0%" height="260.0%" filterUnits="objectBoundingBox" id="filter-3">
            <feOffset dx="0" dy="6" in="SourceAlpha" result="shadowOffsetOuter1"></feOffset>
            <feGaussianBlur stdDeviation="15" in="shadowOffsetOuter1" result="shadowBlurOuter1"></feGaussianBlur>
            <feColorMatrix values="0 0 0 0 0   0 0 0 0 0   0 0 0 0 0  0 0 0 0.1 0" type="matrix" in="shadowBlurOuter1"></feColorMatrix>
        </filter>
    </defs>
    <g id="Web" stroke="none" stroke-width="1" fill="none" fill-rule="evenodd">
        <g id="文档_学习路径_20.03-LTS" transform="translate(-428.000000, -766.000000)">
            <rect fill="#FFFFFF" x="0" y="0" width="1920" height="1464"></rect>
            <g id="学习路径" transform="translate(409.000000, 500.000000)">
                <g id="管理" transform="translate(0.000000, 250.000000)">
                    <g id="管理员指南">
                        <mask id="mask-2" fill="white">
                            <use xlink:href="#path-1"></use>
                        </mask>
                        <g id="Base">
                            <use fill="black" fill-opacity="1" filter="url(#filter-3)" xlink:href="#path-1"></use>
                            <use fill="#FFFFFF" fill-rule="evenodd" xlink:href="#path-1"></use>
                        </g>
                        <g id="openEuler/icons/adjustments" mask="url(#mask-2)" fill="#252C32">
                            <g transform="translate(16.000000, 14.000000)" id="Style">
                                <path d="M7.99999997,1.99999996 L7.99999997,12.14 C9.74196033,12.6133978 10.9510005,14.1948597 10.9510005,16 C10.9510005,17.8051403 9.74196033,19.3866022 7.99999997,19.86 L7.99999997,19.86 L7.99999997,30 L5.99999997,30 L5.99999997,19.86 C4.25803961,19.3866022 3.04899948,17.8051403 3.04899948,16 C3.04899948,14.1948597 4.25803961,12.6133978 5.99999997,12.14 L5.99999997,12.14 L5.99999997,1.99999996 L7.99999997,1.99999996 Z M17,1.99999996 L17,20.14 C18.7419604,20.6133978 19.9510005,22.1948598 19.9510005,24 C19.9510005,25.8051403 18.7419604,27.3866022 17,27.86 L17,27.86 L17,30 L15,30 L15,27.86 C13.2580396,27.3866022 12.0489995,25.8051403 12.0489995,24 C12.0489995,22.1948598 13.2580396,20.6133978 15,20.14 L15,20.14 L15,1.99999996 L17,1.99999996 Z M26,1.99999996 L26,4.13999996 C27.761403,4.59478202 28.9940928,6.18084299 29,7.99999996 C28.9940928,9.81915696 27.761403,11.4052179 26,11.86 L26,11.86 L26,30 L24,30 L24,11.86 C22.2580397,11.3866022 21.0489995,9.80514024 21.0489995,7.99999996 C21.0489995,6.19485971 22.2580397,4.61339778 24,4.13999996 L24,4.13999996 L24,1.99999996 L26,1.99999996 Z M16,22 C14.8954305,22 14,22.8954305 14,24 C14,25.1045695 14.8954305,26 16,26 C17.1045695,26 18,25.1045695 18,24 C18,22.8954305 17.1045695,22 16,22 Z M6.99999997,14 C5.89543047,14 4.99999997,14.8954305 4.99999997,16 C4.99999997,17.1045695 5.89543047,18 6.99999997,18 C8.10456947,18 8.99999997,17.1045695 8.99999997,16 C8.99999997,14.8954305 8.10456947,14 6.99999997,14 Z M25,5.99999997 C23.8954305,5.99999997 23,6.89543047 23,7.99999997 C23,9.10456948 23.8954305,9.99999997 25,9.99999997 C25.530433,9.99999997 26.0391408,9.7892863 26.4142136,9.41421354 C26.7892864,9.03914078 27,8.53043296 27,7.99999997 C27,6.89543047 26.1045695,5.99999997 25,5.99999997 Z"></path>
                            </g>
                        </g>
                    </g>
                </g>
            </g>
        </g>
    </g>
</svg>