<?xml version="1.0" encoding="UTF-8"?>
<svg width="26px" height="28px" viewBox="0 0 26 28" version="1.1" xmlns="http://www.w3.org/2000/svg" xmlns:xlink="http://www.w3.org/1999/xlink">
    <title>Outlined/UI/paper</title>
    <defs>
        <rect id="path-1" x="0" y="0" width="240" height="60" rx="8"></rect>
        <filter x="-20.0%" y="-70.0%" width="140.0%" height="260.0%" filterUnits="objectBoundingBox" id="filter-3">
            <feOffset dx="0" dy="6" in="SourceAlpha" result="shadowOffsetOuter1"></feOffset>
            <feGaussianBlur stdDeviation="15" in="shadowOffsetOuter1" result="shadowBlurOuter1"></feGaussianBlur>
            <feColorMatrix values="0 0 0 0 0   0 0 0 0 0   0 0 0 0 0  0 0 0 0.1 0" type="matrix" in="shadowBlurOuter1"></feColorMatrix>
        </filter>
    </defs>
    <g id="Web" stroke="none" stroke-width="1" fill="none" fill-rule="evenodd">
        <g id="文档_学习路径_20.03-LTS" transform="translate(-1290.000000, -676.000000)">
            <rect fill="#FFFFFF" x="0" y="0" width="1920" height="1464"></rect>
            <g id="学习路径" transform="translate(409.000000, 500.000000)">
                <g id="安装" transform="translate(396.000000, 160.000000)">
                    <g id="安装指南" transform="translate(466.000000, 0.000000)">
                        <mask id="mask-2" fill="white">
                            <use xlink:href="#path-1"></use>
                        </mask>
                        <g id="Base">
                            <use fill="black" fill-opacity="1" filter="url(#filter-3)" xlink:href="#path-1"></use>
                            <use fill="#FFFFFF" fill-rule="evenodd" xlink:href="#path-1"></use>
                        </g>
                        <g id="openEuler/icons/settings" mask="url(#mask-2)" fill="#252C32">
                            <g transform="translate(16.000000, 14.000000)" id="Style">
                                <path d="M16.93,1.99999996 C18.4978924,1.99999996 19.7735536,3.26219378 19.79,4.82999997 L19.79,4.82999997 L19.79,6.47999997 C20.7314683,6.8525716 21.6113631,7.36500079 22.4,7.99999996 L22.4,7.99999996 L23.78,7.19999997 C25.1380115,6.41169392 26.8772073,6.85650103 27.69,8.19999998 L27.69,8.19999998 L28.62,9.80999998 C29.0000025,10.4675662 29.102858,11.2492742 28.9058868,11.9827573 C28.7089157,12.7162405 28.2282944,13.3412603 27.57,13.72 L27.57,13.72 L26.19,14.51 C26.3478816,15.5037684 26.3478816,16.5162316 26.19,17.51 L26.19,17.51 L27.57,18.3 C28.9315645,19.0959718 29.3996472,20.8390226 28.62,22.21 L28.62,22.21 L27.69,23.82 C27.3112604,24.4782944 26.6862405,24.9589156 25.9527574,25.1558868 C25.2192742,25.352858 24.4375662,25.2500025 23.78,24.87 L23.78,24.87 L22.4,24.07 C21.6113631,24.7049992 20.7314683,25.2174284 19.79,25.59 L19.79,25.59 L19.79,27.14 C19.79,28.7195344 18.5095344,30 16.93,30 L16.93,30 L15.07,30 C13.4943626,30 12.2155092,28.7256278 12.21,27.15 L12.21,27.15 L12.21,25.57 C11.2685317,25.1974284 10.3886369,24.6849992 9.59999998,24.05 L9.59999998,24.05 L8.21999998,24.85 C6.84902253,25.6296472 5.10597171,25.1615645 4.30999996,23.8 L4.30999996,23.8 L3.37999996,22.19 C2.58009319,20.8336175 3.02710679,19.0857943 4.37999996,18.28 L4.37999996,18.28 L5.75999997,17.49 C5.60211843,16.4962316 5.60211843,15.4837684 5.75999997,14.49 L5.75999997,14.49 L4.37999996,13.7 C3.03650102,12.8872072 2.59169391,11.1480114 3.37999996,9.78999998 L3.37999996,9.78999998 L4.30999996,8.12999998 C5.11579426,6.7771068 6.86361746,6.3300932 8.21999998,7.12999997 L8.21999998,7.12999997 L9.59999998,7.92999997 C10.3886369,7.29500079 11.2685317,6.7825716 12.21,6.40999997 L12.21,6.40999997 L12.21,4.85999997 C12.21,3.28046558 13.4904656,1.99999996 15.07,1.99999996 L15.07,1.99999996 Z M16.93,3.99999993 L15.07,3.99999993 C14.8384059,3.99999993 14.6165751,4.09328447 14.4547064,4.2589176 C14.2928377,4.42455072 14.2046141,4.64846852 14.21,4.87999997 L14.21,4.87999997 L14.21,7.87999997 L13.51,8.09999998 C12.3490037,8.47027043 11.2837828,9.09164926 10.39,9.91999998 L10.39,9.91999998 L9.84999998,10.41 L7.21999997,8.88999998 C6.8083772,8.65663631 6.28555868,8.7996294 6.04999997,9.20999998 L6.04999997,9.20999998 L5.11999997,10.82 C5.00389815,11.0174132 4.97133433,11.2529819 5.02952678,11.4744887 C5.08771923,11.6959955 5.23186071,11.8851416 5.42999997,11.9999999 L5.42999997,11.9999999 L8.04999998,13.45 L7.89999997,14.17 C7.76204874,14.7601093 7.69159684,15.3639827 7.68999997,15.97 C7.69282817,16.5753842 7.75986997,17.1787604 7.88999997,17.77 L7.88999997,17.77 L8.04999998,18.49 L5.42999997,19.9999999 C5.22348253,20.1147596 5.0732724,20.3094263 5.01463652,20.5382953 C4.95600064,20.7671644 4.9941038,21.0100766 5.11999997,21.21 L5.11999997,21.21 L6.04999997,22.82 C6.16194768,23.0183071 6.34961251,23.1626646 6.56999997,23.22 C6.78881619,23.2790135 7.0220237,23.250311 7.21999997,23.14 L7.21999997,23.14 L9.84999998,21.62 L10.39,22.11 C11.2837828,22.9383507 12.3490037,23.5597296 13.51,23.93 L13.51,23.93 L14.21,24.15 L14.21,27.15 C14.21,27.6249649 14.5950351,28.01 15.07,28.01 L15.07,28.01 L16.98,28.01 C17.4549649,28.01 17.84,27.6249649 17.84,27.15 L17.84,27.15 L17.84,24.15 L18.54,23.93 C19.7009963,23.5597296 20.7662172,22.9383507 21.66,22.11 L21.66,22.11 L22.2,21.62 L24.83,23.14 C25.2416228,23.3733637 25.7644413,23.2303706 26,22.82 L26,22.82 L26.88,21.21 C27.0058962,21.0100766 27.0439994,20.7671644 26.9853635,20.5382953 C26.9267276,20.3094263 26.7765175,20.1147596 26.57,19.9999999 L26.57,19.9999999 L24,18.52 L24.15,17.8 C24.2879513,17.2098907 24.3584032,16.6060173 24.36,15.9999999 C24.3571718,15.3946158 24.29013,14.7912396 24.16,14.2 L24.16,14.2 L24,13.48 L26.57,11.9999999 C26.7736854,11.8851683 26.9218323,11.6923495 26.9803171,11.4659569 C27.0388018,11.2395643 27.0025819,10.9991174 26.88,10.8 L26.88,10.8 L25.95,9.18999998 C25.8380523,8.99169292 25.6503875,8.84733536 25.43,8.78999998 C25.2111838,8.73098649 24.9779763,8.75968895 24.78,8.86999998 L24.78,8.86999998 L22.15,10.39 L21.61,9.89999998 C20.7162172,9.07164926 19.6509963,8.45027043 18.49,8.07999998 L18.49,8.07999998 L17.79,7.85999997 L17.79,4.85999997 C17.79,4.38503508 17.4049649,3.99999993 16.93,3.99999993 L16.93,3.99999993 Z M16,12 C18.209139,12 20,13.790861 20,16 C20,18.209139 18.209139,20 16,20 C13.790861,20 12,18.209139 12,16 C12,13.790861 13.790861,12 16,12 Z M16,14 C14.8954305,14 14,14.8954305 14,16 C14,17.1045695 14.8954305,18 16,18 C17.1045695,18 18,17.1045695 18,16 C18,14.8954305 17.1045695,14 16,14 Z"></path>
                            </g>
                        </g>
                    </g>
                </g>
            </g>
        </g>
    </g>
</svg>