<?xml version="1.0" encoding="UTF-8"?>
<svg width="22px" height="29px" viewBox="0 0 22 29" version="1.1" xmlns="http://www.w3.org/2000/svg" xmlns:xlink="http://www.w3.org/1999/xlink">
    <title>Style</title>
    <g id="控件" stroke="none" stroke-width="1" fill="none" fill-rule="evenodd">
        <g id="icon选中态" transform="translate(-169.000000, -694.000000)" fill="#002FA7">
            <path d="M188,694.59 L172,694.59 C170.343146,694.59 169,695.933146 169,697.59 L169,722.89 L178.73,718.28 C179.534899,717.903896 180.465101,717.903896 181.27,718.28 L191,722.89 L191,697.59 C191,695.933146 189.656854,694.59 188,694.59 Z M189,719.75 L182.11,716.47 C180.772246,715.847306 179.227754,715.847306 177.89,716.47 L171,719.75 L171,700.59 L189,700.59 L189,719.75 Z M186,709.59 L186,711.59 L174,711.59 L174,709.59 L186,709.59 Z M181,704.59 L181,706.59 L174,706.59 L174,704.59 L181,704.59 Z M188,696.59 C188.552285,696.59 189,697.037715 189,697.59 L189,698.59 L171,698.59 L171,697.59 C171,697.037715 171.447715,696.59 172,696.59 L188,696.59 Z" id="Style"></path>
        </g>
    </g>
</svg>