<?xml version="1.0" encoding="UTF-8"?>
<svg width="28px" height="28px" viewBox="0 0 28 28" version="1.1" xmlns="http://www.w3.org/2000/svg" xmlns:xlink="http://www.w3.org/1999/xlink">
    <title>Style</title>
    <g id="控件" stroke="none" stroke-width="1" fill="none" fill-rule="evenodd">
        <g id="icon选中态" transform="translate(-43.000000, -171.000000)" fill="#002FA7">
            <path d="M70.7453497,197.32535 L60.7453496,187.32535 C64.1151468,183.199053 63.6583831,177.155398 59.7066963,173.58244 C55.7550095,170.009482 49.6960345,170.161865 45.9289495,173.92895 C42.1618645,177.696035 42.0094815,183.755009 45.5824397,187.706696 C49.1553978,191.658383 55.1990528,192.115147 59.3253496,188.74535 L69.3253497,198.74535 L70.7453497,197.32535 Z M45.0353496,181.03535 C45.0353496,176.617072 48.6170716,173.03535 53.0353496,173.03535 C57.4536276,173.03535 61.0353496,176.617072 61.0353496,181.03535 C61.0353496,185.453628 57.4536276,189.03535 53.0353496,189.03535 C50.9136177,189.03535 48.8787864,188.192495 47.3784954,186.692204 C45.8782043,185.191913 45.0353496,183.157082 45.0353496,181.03535 L45.0353496,181.03535 Z" id="Style"></path>
        </g>
    </g>
</svg>