<?xml version="1.0" encoding="UTF-8"?>
<svg width="40px" height="40px" viewBox="0 0 40 40" version="1.1" xmlns="http://www.w3.org/2000/svg" xmlns:xlink="http://www.w3.org/1999/xlink">
    <title>编组 2备份 2</title>
    <defs>
        <path d="M3.2,6.7436182 L36.3360977,6.7436182 C36.7183959,6.7436182 37.088059,6.6067334 37.3781586,6.3577471 L43.7436533,0.894378695 C44.3431029,0.379883892 45.2283256,0.379883892 45.8277752,0.894378695 L52.19327,6.3577471 C52.4833695,6.6067334 52.8530327,6.7436182 53.2353309,6.7436182 L216.8,6.7436182 C218.567311,6.7436182 220,8.176307 220,9.9436182 L220,120.8 C220,122.567311 218.567311,124 216.8,124 L3.2,124 C1.4326888,124 1.07294068e-14,122.567311 0,120.8 L0,9.9436182 C5.68410634e-16,8.176307 1.4326888,6.7436182 3.2,6.7436182 Z" id="path-1"></path>
        <filter x="-12.0%" y="-16.9%" width="124.1%" height="142.3%" filterUnits="objectBoundingBox" id="filter-2">
            <feOffset dx="0" dy="5" in="SourceAlpha" result="shadowOffsetOuter1"></feOffset>
            <feGaussianBlur stdDeviation="8" in="shadowOffsetOuter1" result="shadowBlurOuter1"></feGaussianBlur>
            <feComposite in="shadowBlurOuter1" in2="SourceAlpha" operator="out" result="shadowBlurOuter1"></feComposite>
            <feColorMatrix values="0 0 0 0 0   0 0 0 0 0   0 0 0 0 0  0 0 0 0.1 0" type="matrix" in="shadowBlurOuter1"></feColorMatrix>
        </filter>
        <rect id="path-3" x="0" y="0" width="40" height="40"></rect>
        <polygon id="path-5" points="0.886144 0.229908 20.513424 0.229908 20.513424 0.92 0.886144 0.92"></polygon>
    </defs>
    <g id="Web" stroke="none" stroke-width="1" fill="none" fill-rule="evenodd">
        <g id="LandingPage" transform="translate(-904.000000, -980.000000)">
            <rect fill="#FFFFFF" x="0" y="0" width="1920" height="5239"></rect>
            <g id="上手旅程" transform="translate(432.000000, 692.000000)"></g>
            <g id="Article-Big备份-12" transform="translate(794.000000, 932.000000)">
                <g id="Base">
                    <use fill="black" fill-opacity="1" filter="url(#filter-2)" xlink:href="#path-1"></use>
                    <path stroke-opacity="0.5" stroke="#002FA7" stroke-width="0.8" d="M44.7857143,0.908507593 C45.0640903,0.908507593 45.3424664,1.00497537 45.56726,1.19791092 L45.56726,1.19791092 L51.9327547,6.66127932 C52.2953792,6.97251219 52.7574581,7.1436182 53.2353309,7.1436182 L53.2353309,7.1436182 L216.8,7.1436182 C217.573199,7.1436182 218.273199,7.45701888 218.779899,7.96371921 C219.286599,8.47041955 219.6,9.17041955 219.6,9.9436182 L219.6,9.9436182 L219.6,120.8 C219.6,121.573199 219.286599,122.273199 218.779899,122.779899 C218.273199,123.286599 217.573199,123.6 216.8,123.6 L216.8,123.6 L3.2,123.6 C2.42680135,123.6 1.72680135,123.286599 1.22010101,122.779899 C0.713400675,122.273199 0.4,121.573199 0.4,120.8 L0.4,120.8 L0.4,9.9436182 C0.4,9.17041955 0.713400675,8.47041955 1.22010101,7.96371921 C1.72680135,7.45701888 2.42680135,7.1436182 3.2,7.1436182 L3.2,7.1436182 L36.3360977,7.1436182 C36.8139705,7.1436182 37.2760494,6.97251219 37.6386739,6.66127932 L37.6386739,6.66127932 L44.0041686,1.19791092 C44.2289622,1.00497537 44.5073382,0.908507593 44.7857143,0.908507593 Z" stroke-linejoin="square" fill="#FFFFFF" fill-rule="evenodd"></path>
                </g>
                <g id="编组-2备份-2" transform="translate(110.000000, 48.000000)">
                    <mask id="mask-4" fill="white">
                        <use xlink:href="#path-3"></use>
                    </mask>
                    <use id="矩形" fill="#FFFFFF" xlink:href="#path-3"></use>
                    <g id="编组" mask="url(#mask-4)">
                        <g transform="translate(8.000000, 8.000000)">
                            <path d="M19.186416,16.189424 L4.053336,16.189424 C1.941936,16.189424 0.230736,14.478224 0.230736,12.366824 L0.230736,4.053704 C0.230736,1.942304 1.941936,0.229264 4.053336,0.229264 L19.186416,0.229264 C21.297816,0.229264 23.009016,1.942304 23.009016,4.053704 L23.009016,12.366824 C23.009016,14.478224 21.297816,16.189424 19.186416,16.189424" id="Fill-1" stroke="none" fill="#3165F0" fill-rule="evenodd"></path>
                            <path d="M19.186416,16.189424 L4.053336,16.189424 C1.941936,16.189424 0.230736,14.478224 0.230736,12.366824 L0.230736,4.053704 C0.230736,1.942304 1.941936,0.229264 4.053336,0.229264 L19.186416,0.229264 C21.297816,0.229264 23.009016,1.942304 23.009016,4.053704 L23.009016,12.366824 C23.009016,14.478224 21.297816,16.189424 19.186416,16.189424 Z" id="Stroke-3" stroke="#000000" stroke-width="0.5" fill="none" stroke-linecap="round" stroke-linejoin="round"></path>
                            <g id="编组" stroke="none" stroke-width="1" fill="none" fill-rule="evenodd" transform="translate(11.040000, 16.579412)">
                                <line x1="0.579784" y1="0.652188" x2="0.579784" y2="3.327548" id="Fill-5" fill="#FFFFFF"></line>
                                <line x1="0.579784" y1="0.652188" x2="0.579784" y2="3.327548" id="Stroke-7" stroke="#000000" stroke-width="0.5" stroke-linecap="round" stroke-linejoin="round"></line>
                            </g>
                            <g id="编组" stroke="none" stroke-width="1" fill="none" fill-rule="evenodd" transform="translate(0.920000, 20.259412)">
                                <mask id="mask-6" fill="white">
                                    <use xlink:href="#path-5"></use>
                                </mask>
                                <g id="Clip-9"></g>
                                <line x1="0.886144" y1="0.689908" x2="20.513424" y2="0.689908" id="Fill-8" fill="#FFFFFF" mask="url(#mask-6)"></line>
                                <line x1="0.886144" y1="0.689908" x2="20.513424" y2="0.689908" id="Stroke-10" stroke="#000000" stroke-width="0.5" stroke-linecap="round" stroke-linejoin="round" mask="url(#mask-6)"></line>
                            </g>
                            <path d="M14.839784,6.666872 L14.839784,6.664112 C14.839784,4.884832 13.398144,3.444112 11.619784,3.444112 C9.841424,3.444112 8.399784,4.884832 8.399784,6.664112 L8.399784,6.666872 C6.682144,6.695392 5.298464,8.095632 5.298464,9.819712 C5.298464,11.562192 6.711584,12.975312 8.454064,12.975312 L14.785504,12.975312 C16.527984,12.975312 17.941104,11.562192 17.941104,9.819712 C17.941104,8.095632 16.557424,6.695392 14.839784,6.666872" id="Fill-11" stroke="none" fill="#FFFFFF" fill-rule="evenodd"></path>
                            <path d="M14.839784,6.666872 L14.839784,6.664112 C14.839784,4.884832 13.398144,3.444112 11.619784,3.444112 C9.841424,3.444112 8.399784,4.884832 8.399784,6.664112 L8.399784,6.666872 C6.682144,6.695392 5.298464,8.095632 5.298464,9.819712 C5.298464,11.562192 6.711584,12.975312 8.454064,12.975312 L14.785504,12.975312 C16.527984,12.975312 17.941104,11.562192 17.941104,9.819712 C17.941104,8.095632 16.557424,6.695392 14.839784,6.666872 Z" id="Stroke-13" stroke="#000000" stroke-width="0.5" fill="none"></path>
                        </g>
                    </g>
                </g>
            </g>
        </g>
    </g>
</svg>