<?xml version="1.0" encoding="UTF-8"?>
<svg width="28px" height="28px" viewBox="0 0 28 28" version="1.1" xmlns="http://www.w3.org/2000/svg" xmlns:xlink="http://www.w3.org/1999/xlink">
    <title>Style</title>
    <g id="控件" stroke="none" stroke-width="1" fill="none" fill-rule="evenodd">
        <g id="icon可点击" transform="translate(-352.000000, -339.000000)" fill="#252C32">
            <path d="M366,339 C369.713031,339 373.273986,340.474996 375.899495,343.100505 C378.525004,345.726014 380,349.286969 380,353 C380,360.731987 373.731987,367 366,367 C358.268014,367 352,360.731987 352,353 C352,345.268014 358.268014,339 366,339 Z M366,341 C359.372583,341 354,346.372583 354,353 C354,359.627417 359.372583,365 366,365 C369.182598,365 372.234845,363.735718 374.485281,361.485281 C376.735718,359.234845 378,356.182598 378,353 C378,346.372583 372.627417,341 366,341 Z M364.59,349.59 C365.370075,348.814553 366.629925,348.814553 367.41,349.59 L367.41,349.59 L372.71,354.88 L371.29,356.29 L366,351 L360.71,356.29 L359.29,354.88 Z" id="Style"></path>
        </g>
    </g>
</svg>