<?xml version="1.0" encoding="UTF-8"?>
<svg width="22px" height="22px" viewBox="0 0 22 22" version="1.1" xmlns="http://www.w3.org/2000/svg" xmlns:xlink="http://www.w3.org/1999/xlink">
    <title>Outlined/UI/button_arrow_down</title>
    <g id="mobile" stroke="none" stroke-width="1" fill="none" fill-rule="evenodd">
        <g id="openEuler-LandingPage_移动端首页尺寸" transform="translate(-176.000000, -4455.000000)">
            <rect fill="#FFFFFF" x="0" y="0" width="375" height="6452"></rect>
            <g id="Outlined/UI/button_arrow_down" transform="translate(175.000000, 4454.000000)" fill="#252C32">
                <path d="M12,1.49999997 C14.7847732,1.49999997 17.4554892,2.60624679 19.4246212,4.57537877 C21.3937532,6.54451075 22.5,9.21522685 22.5,12 C22.5,17.7989899 17.7989899,22.5 12,22.5 C6.20101011,22.5 1.49999997,17.7989899 1.49999997,12 C1.49999997,6.20101011 6.20101011,1.49999997 12,1.49999997 Z M12,2.99999997 C7.02943724,2.99999997 2.99999997,7.02943724 2.99999997,12 C2.99999997,16.9705628 7.02943724,21 12,21 C14.3869484,21 16.6761336,20.0517885 18.3639611,18.3639611 C20.0517885,16.6761336 21,14.3869484 21,12 C21,7.02943724 16.9705628,2.99999997 12,2.99999997 Z M15.9675,9.53249999 L17.0325,10.59 L13.0575,14.5575 C12.4724438,15.1390854 11.5275562,15.1390854 10.9425,14.5575 L10.9425,14.5575 L6.96749998,10.59 L8.03249999,9.53249999 L12,13.5 L15.9675,9.53249999 Z" id="Style"></path>
            </g>
        </g>
    </g>
</svg>