<?xml version="1.0" encoding="UTF-8"?>
<svg width="30px" height="28px" viewBox="0 0 30 28" version="1.1" xmlns="http://www.w3.org/2000/svg" xmlns:xlink="http://www.w3.org/1999/xlink">
    <title>形状结合</title>
    <g id="控件" stroke="none" stroke-width="1" fill="none" fill-rule="evenodd" opacity="0.5">
        <g id="icon不可点击" transform="translate(-41.000000, -283.000000)" fill="#0B162B">
            <path d="M49,283 L49,285 L63,285 L63,283 L65,283 L65,285 L67,285 C69.209139,285 71,286.790861 71,289 L71,307 C71,309.209139 69.209139,311 67,311 L45,311 C42.790861,311 41,309.209139 41,307 L41,289 C41,286.790861 42.790861,285 45,285 L47,285 L47,283 L49,283 Z M69,291 L43,291 L43,307 C43,308.054362 43.8158778,308.918165 44.8507377,308.994514 L45,309 L67,309 C68.0543618,309 68.9181651,308.184122 68.9945143,307.149262 L69,307 L69,291 Z M51,301 L51,307 L45,307 L45,301 L51,301 Z M59,301 L59,307 L53,307 L53,301 L59,301 Z M49,303 L47,303 L47,305 L49,305 L49,303 Z M57,303 L55,303 L55,305 L57,305 L57,303 Z M51,293 L51,299 L45,299 L45,293 L51,293 Z M59,293 L59,299 L53,299 L53,293 L59,293 Z M67,293 L67,299 L61,299 L61,293 L67,293 Z M49,295 L47,295 L47,297 L49,297 L49,295 Z M57,295 L55,295 L55,297 L57,297 L57,295 Z M65,295 L63,295 L63,297 L65,297 L65,295 Z M67,287 L45,287 C43.9456382,287 43.0818349,287.815878 43.0054857,288.850738 L43,289 L69,289 C69,287.895431 68.1045695,287 67,287 Z" id="形状结合"></path>
        </g>
    </g>
</svg>