<?xml version="1.0" standalone="no"?><!DOCTYPE svg PUBLIC "-//W3C//DTD SVG 1.1//EN" "http://www.w3.org/Graphics/SVG/1.1/DTD/svg11.dtd"><svg t="1599451109258" class="icon" viewBox="0 0 1024 1024" version="1.1" xmlns="http://www.w3.org/2000/svg" p-id="3322" xmlns:xlink="http://www.w3.org/1999/xlink" width="200" height="200"><defs><style type="text/css"></style></defs><path d="M684.08833 538.065763L450.716191 701.416262c-14.548263 10.188784-34.605869 6.649206-44.794652-7.909056a32.211154 32.211154 0 0 1-5.809306-18.447798V348.358411c0-17.75788 14.398281-32.16616 32.16616-32.16616 6.599212 0 13.038443 2.029758 18.447797 5.809307l233.372139 163.360497c14.548263 10.188784 18.087841 30.23639 7.909056 44.794652a32.340139 32.340139 0 0 1-7.919055 7.909056z m119.44574 270.367722c-163.850439 160.940786-427.149005 158.611064-588.129786-5.199379S56.693232 376.125096 220.483678 215.114319s427.079013-158.791043 588.129786 4.959408a415.88035 415.88035 0 0 1 119.365749 295.234753 415.888349 415.888349 0 0 1-124.445143 293.125005z m73.521223-655.301767C731.872626 5.499343 512.058868-40.145207 320.101785 37.485525 128.144701 115.116257 1.849779 300.734097 0.119986 507.779379s121.425504 394.752873 312.052745 475.583222 411.180911 38.885358 558.813287-106.297309c201.595933-198.236334 204.305609-522.34764 6.069275-723.933574z" p-id="3323" fill="#ffffff"></path></svg>