<?xml version="1.0" standalone="no"?><!DOCTYPE svg PUBLIC "-//W3C//DTD SVG 1.1//EN" "http://www.w3.org/Graphics/SVG/1.1/DTD/svg11.dtd"><svg t="1599455007744" class="icon" viewBox="0 0 1024 1024" version="1.1" xmlns="http://www.w3.org/2000/svg" p-id="2711" xmlns:xlink="http://www.w3.org/1999/xlink" width="200" height="200"><defs><style type="text/css"></style></defs><path d="M304.355556 420.977778l153.6-122.311111v429.511111l-153.6-122.311111h-142.222223v-182.044445h142.222223z m-176.355556-62.577778c-17.066667 0-28.444444 14.222222-28.444444 28.444444v250.311112c0 17.066667 14.222222 28.444444 28.444444 28.444444H284.444444c65.422222 51.2 128 102.4 193.422223 153.6 19.911111 14.222222 48.355556 2.844444 48.355555-22.755556V227.555556c0-25.6-28.444444-36.977778-48.355555-22.755556-65.422222 51.2-128 102.4-193.422223 153.6H128z m446.577778 5.688889c-11.377778-14.222222-8.533333-34.133333 2.844444-45.511111 14.222222-11.377778 34.133333-8.533333 45.511111 2.844444 39.822222 45.511111 76.8 93.866667 116.622223 139.377778 39.822222-45.511111 76.8-93.866667 116.622222-139.377778 11.377778-14.222222 31.288889-14.222222 45.511111-2.844444s14.222222 31.288889 2.844444 45.511111c-42.666667 48.355556-82.488889 99.555556-125.155555 147.911111 42.666667 48.355556 82.488889 99.555556 125.155555 147.911111 11.377778 14.222222 8.533333 34.133333-2.844444 45.511111-14.222222 11.377778-34.133333 8.533333-45.511111-2.844444-39.822222-45.511111-76.8-93.866667-116.622222-139.377778l-116.622223 139.377778c-11.377778 14.222222-31.288889 14.222222-45.511111 2.844444s-14.222222-31.288889-2.844444-45.511111c42.666667-48.355556 82.488889-99.555556 125.155555-147.911111-42.666667-48.355556-82.488889-99.555556-125.155555-147.911111z" p-id="2712" fill="#ffffff"></path></svg>