<?xml version="1.0" encoding="UTF-8"?>
<svg width="24px" height="31px" viewBox="0 0 24 31" version="1.1" xmlns="http://www.w3.org/2000/svg" xmlns:xlink="http://www.w3.org/1999/xlink">
    <title>编组</title>
    <defs>
        <polygon id="path-1" points="0.0435211233 0.0590174927 19.0610938 0.0590174927 19.0610938 18.9795918 0.0435211233 18.9795918"></polygon>
    </defs>
    <g id="mobile" stroke="none" stroke-width="1" fill="none" fill-rule="evenodd">
        <g id="openEuler-LandingPage_移动端首页尺寸" transform="translate(-245.000000, -4528.000000)">
            <g id="编组" transform="translate(245.000000, 4528.000000)">
                <polygon id="Fill-1" fill="#FFB42B" points="0.317159763 0 0.317159763 4.07922852 7.70177515 8.57142857 7.70177515 0"></polygon>
                <polygon id="Fill-2" fill="#FFB42B" points="16.3171598 0 16.3171598 8.57142857 23.7017751 4.07922852 23.7017751 0"></polygon>
                <polygon id="Fill-3" fill="#FFB42B" points="9.54792899 8.57142857 15.0863905 8.57142857 15.0863905 0 9.54792899 0"></polygon>
                <g transform="translate(2.778698, 10.408163)">
                    <g>
                        <mask id="mask-2" fill="white">
                            <use xlink:href="#path-1"></use>
                        </mask>
                        <g id="Clip-5"></g>
                        <path d="M9.55230745,17.7176448 C5.00125006,17.7176448 1.3119094,14.0471273 1.3119094,9.5192896 C1.3119094,4.9914519 5.00125006,1.3209344 9.55230745,1.3209344 C14.1033648,1.3209344 17.7927055,4.9914519 17.7927055,9.5192896 C17.7927055,14.0471273 14.1033648,17.7176448 9.55230745,17.7176448 M9.55230745,0.0590174927 C4.30070305,0.0590174927 0.0435211233,4.29447911 0.0435211233,9.5192896 C0.0435211233,14.7441001 4.30070305,18.979637 9.55230745,18.979637 C14.8039118,18.979637 19.0610938,14.7441001 19.0610938,9.5192896 C19.0610938,4.29447911 14.8039118,0.0590174927 9.55230745,0.0590174927" id="Fill-4" fill="#FFB42B" mask="url(#mask-2)"></path>
                    </g>
                    <polygon id="Fill-6" fill="#FFB42B" points="9.55230745 4.36195457 11.2366786 7.75734329 15.0028569 8.30187682 12.2775822 10.9447097 12.9209741 14.6766096 9.55230745 12.9146708 6.18371648 14.6766096 6.82703272 10.9447097 4.101758 8.30187682 7.86801197 7.75734329"></polygon>
                </g>
            </g>
        </g>
    </g>
</svg>