<?xml version="1.0" encoding="UTF-8"?>
<svg width="26px" height="26px" viewBox="0 0 26 26" version="1.1" xmlns="http://www.w3.org/2000/svg" xmlns:xlink="http://www.w3.org/1999/xlink">
    <title>Style</title>
    <g id="控件" stroke="none" stroke-width="1" fill="none" fill-rule="evenodd">
        <g id="icon可点击" transform="translate(-43.000000, -59.000000)" fill="#252C32">
            <path d="M64,73 C66.7614238,73 69,75.2385763 69,78 L69,78 L69,85 L67,85 L67,78 C67,76.3431458 65.6568543,75 64,75 L64,75 L48,75 C46.3431458,75 45,76.3431458 45,78 L45,78 L45,85 L43,85 L43,78 C43,75.2385763 45.2385763,73 48,73 L48,73 Z M56,59 C59.3137085,59 62,61.6862915 62,65 C62,68.3137085 59.3137085,71 56,71 C52.6862915,71 50,68.3137085 50,65 C50,61.6862915 52.6862915,59 56,59 Z M56,61 C53.790861,61 52,62.790861 52,65 C52,67.209139 53.790861,69 56,69 C58.209139,69 60,67.209139 60,65 C60,62.790861 58.209139,61 56,61 Z" id="Style"></path>
        </g>
    </g>
</svg>