<?xml version="1.0" encoding="UTF-8"?>
<svg width="28px" height="24px" viewBox="0 0 28 24" version="1.1" xmlns="http://www.w3.org/2000/svg" xmlns:xlink="http://www.w3.org/1999/xlink">
    <title>Style</title>
    <g id="控件" stroke="none" stroke-width="1" fill="none" fill-rule="evenodd">
        <g id="icon可点击" transform="translate(-169.000000, -448.000000)" fill="#252C32">
            <path d="M169,448 L169,469 C169,470.656854 170.343146,472 172,472 L194,472 C195.656854,472 197,470.656854 197,469 L197,448 L169,448 Z M193.27,450 L183.65,458.14 C183.275776,458.460088 182.724224,458.460088 182.35,458.14 L172.73,450 L193.27,450 Z M194,470 L172,470 C171.447715,470 171,469.552285 171,469 L171,451.16 L181.06,459.67 C182.179281,460.618909 183.820719,460.618909 184.94,459.67 L195,451.16 L195,469 C195,469.552285 194.552285,470 194,470 Z" id="Style"></path>
        </g>
    </g>
</svg>