<?xml version="1.0" encoding="UTF-8"?>
<svg width="24px" height="24px" viewBox="0 0 24 24" version="1.1" xmlns="http://www.w3.org/2000/svg" xmlns:xlink="http://www.w3.org/1999/xlink">
    <title>放大镜</title>
    <g id="页面-1" stroke="none" stroke-width="1" fill="none" fill-rule="evenodd">
        <g id="文档首页" transform="translate(-1356.000000, -18.000000)">
            <rect fill="#FFFFFF" x="0" y="0" width="1920" height="2357"></rect>
            <g id="Menu">
                <rect id="Header-BG" x="0" y="0" width="1920" height="60"></rect>
                <g id="Outlined/UI/search" transform="translate(1356.000000, 18.000000)" fill="#002FA7">
                    <path d="M22.2825,21.2175 L14.7825,13.7175 C17.3098479,10.6227774 16.9672751,6.09003616 14.00351,3.41031754 C11.0397449,0.730598931 6.49551366,0.844886183 3.67019992,3.67019992 C0.844886183,6.49551366 0.730598931,11.0397449 3.41031754,14.00351 C6.09003616,16.9672751 10.6227774,17.3098479 13.7175,14.7825 L21.2175,22.2825 L22.2825,21.2175 Z M2.99999997,8.99999997 C2.99999997,5.68629148 5.68629148,2.99999997 8.99999997,2.99999997 C12.3137085,2.99999997 15,5.68629148 15,8.99999997 C15,12.3137085 12.3137085,15 8.99999997,15 C7.40870105,15 5.88257756,14.367859 4.75735929,13.2426407 C3.63214102,12.1174224 2.99999997,10.5912989 2.99999997,8.99999997 L2.99999997,8.99999997 Z" id="Style"></path>
                </g>
                <rect id="矩形" x="1356" y="18" width="24" height="24"></rect>
            </g>
        </g>
    </g>
</svg>