<?xml version="1.0" encoding="UTF-8"?>
<svg width="8px" height="8px" viewBox="0 0 8 8" version="1.1" xmlns="http://www.w3.org/2000/svg" xmlns:xlink="http://www.w3.org/1999/xlink">
    <title>形状结合</title>
    <g id="页面-1" stroke="none" stroke-width="1" fill="none" fill-rule="evenodd">
        <g id="文档搜索页" transform="translate(-327.000000, -422.000000)" fill="#0041BD">
            <g id="搜索" transform="translate(30.000000, 410.000000)">
                <path d="M304.76037,12.2396302 C305.079877,12.5591371 305.079877,13.0771601 304.76037,13.396667 L302.157,16 L304.76037,18.603333 C305.079877,18.9228399 305.079877,19.4408629 304.76037,19.7603698 C304.440863,20.0798767 303.92284,20.0798767 303.603333,19.7603698 L301,17.157 L298.396667,19.7603698 C298.07716,20.0798767 297.559137,20.0798767 297.23963,19.7603698 C296.920123,19.4408629 296.920123,18.9228399 297.23963,18.603333 L299.843,16 L297.23963,13.396667 C296.920123,13.0771601 296.920123,12.5591371 297.23963,12.2396302 C297.559137,11.9201233 298.07716,11.9201233 298.396667,12.2396302 L301,14.843 L303.603333,12.2396302 C303.92284,11.9201233 304.440863,11.9201233 304.76037,12.2396302 Z" id="形状结合"></path>
            </g>
        </g>
    </g>
</svg>